<?xml version="1.0" encoding="utf-8" standalone="no"?>
<!DOCTYPE svg PUBLIC "-//W3C//DTD SVG 1.1//EN" "http://www.w3.org/Graphics/SVG/1.1/DTD/svg11-flat-20030114.dtd">
<!-- Created by SVGDeveloper 1.0 -->
<svg width="640" height="480" version="1.1" xmlns="http://www.w3.org/2000/svg" xmlns:xlink="http://www.w3.org/1999/xlink">
<rect x="96" y="185" width="47" height="47" rx="2" ry="2" fill="none" fill-opacity="0" stroke="#FFFFFF" stroke-width="3" transform="matrix(1.038,0,0,1.01,-90.46902,-174.435)" xmlns="http://www.w3.org/2000/svg" />
<rect x="116" y="169" width="17" height="45" rx="5" ry="5" fill="#FFFFFF" stroke="none" stroke-opacity="0" transform="matrix(0.7069999,0.7069998,-0.707,0.7069999,90.50095,-196.446)" xmlns="http://www.w3.org/2000/svg" />
<path d="M110 208L108 220L121 219" fill="#FFFFFF" stroke="none" stroke-opacity="0" transform="matrix(1,0,0,1,-86.562,-172.312)" xmlns="http://www.w3.org/2000/svg" />
<rect x="96" y="185" width="47" height="47" rx="2" ry="2" fill="none" fill-opacity="0" stroke="#FFFFFF" stroke-width="3" transform="matrix(1.038,0,0,1.01,-20.13664,-175.102)" xmlns="http://www.w3.org/2000/svg" />
<path d="M230 217L241 204L252 213L266 193L277 216L277 231L231 231C231 231 230 216 230 217Z" fill="#FFFFFF" fill-opacity="1" stroke="none" stroke-width="0.25" transform="matrix(1,0,0,1,-150,-172.5)" xmlns="http://www.w3.org/2000/svg" />
<circle cx="242.5016" cy="196.835" r="4.834999" fill="#FFFFFF" stroke="none" stroke-opacity="0" transform="matrix(1,0,0,1,-151.667,-173.833)" xmlns="http://www.w3.org/2000/svg" />
<polygon points="412 226,396 218,380 225,381 207,370 194,387 190,397 176,406 190,423 195,411 208" fill-rule="evenodd" fill="#FFFFFF" stroke="none" stroke-opacity="0" transform="matrix(1.04,-0.03,0.02999999,1.04,-243.264,-160.479)" xmlns="http://www.w3.org/2000/svg" />
<rect x="96" y="185" width="47" height="47" rx="2" ry="2" fill="none" fill-opacity="0" stroke="#FFFFFF" stroke-width="3" transform="matrix(1.038,0,0,1.01,119.6964,-174.769)" xmlns="http://www.w3.org/2000/svg" />
<line x1="500.9999" y1="197.3333" x2="500.9999" y2="197.3333" stroke="none" stroke-opacity="0" stroke-width="3" />
<line x1="494.9999" y1="199" x2="521.9999" y2="199" stroke="#FFFFFF" stroke-opacity="1" stroke-width="4" transform="matrix(1,0,0,1,-265,-172.5)" xmlns="http://www.w3.org/2000/svg" />
<line x1="511.6666" y1="199.6666" x2="511.6666" y2="199.6666" stroke="#000000" stroke-width="4" />
<line x1="494.9999" y1="199" x2="521.9999" y2="199" stroke="#FFFFFF" stroke-opacity="1" stroke-width="4" transform="matrix(1,0,0,1,-264.667,-162.834)" xmlns="http://www.w3.org/2000/svg" />
<line x1="494.9999" y1="199" x2="521.9999" y2="199" stroke="#FFFFFF" stroke-opacity="1" stroke-width="4" transform="matrix(1,0,0,1,-264.666,-153.167)" xmlns="http://www.w3.org/2000/svg" />
</svg>