<?xml version="1.0" encoding="UTF-8" standalone="no"?>
<!-- Created with Inkscape (http://www.inkscape.org/) -->

<svg
   xmlns:dc="http://purl.org/dc/elements/1.1/"
   xmlns:cc="http://creativecommons.org/ns#"
   xmlns:rdf="http://www.w3.org/1999/02/22-rdf-syntax-ns#"
   xmlns:svg="http://www.w3.org/2000/svg"
   xmlns="http://www.w3.org/2000/svg"
   xmlns:sodipodi="http://sodipodi.sourceforge.net/DTD/sodipodi-0.dtd"
   xmlns:inkscape="http://www.inkscape.org/namespaces/inkscape"
   width="210mm"
   height="210mm"
   viewBox="0 0 744.09449 744.09448"
   id="svg2"
   version="1.1"
   inkscape:version="0.91 r13725"
   sodipodi:docname="grid.svg">
  <defs
     id="defs4">
    <pattern
       y="0"
       x="0"
       height="6"
       width="6"
       patternUnits="userSpaceOnUse"
       id="EMFhbasepattern" />
  </defs>
  <sodipodi:namedview
     id="base"
     pagecolor="#ffffff"
     bordercolor="#666666"
     borderopacity="1.0"
     inkscape:pageopacity="0.0"
     inkscape:pageshadow="2"
     inkscape:zoom="0.35000001"
     inkscape:cx="338.05949"
     inkscape:cy="373.41408"
     inkscape:document-units="px"
     inkscape:current-layer="layer1"
     showgrid="false"
     showguides="true"
     inkscape:guide-bbox="true"
     inkscape:window-width="1298"
     inkscape:window-height="746"
     inkscape:window-x="-8"
     inkscape:window-y="-8"
     inkscape:window-maximized="1">
    <sodipodi:guide
       position="-1163.6957,3878.9857"
       orientation="0,1"
       id="guide4210" />
    <sodipodi:guide
       position="-1777.8684,4848.7321"
       orientation="0,1"
       id="guide4877" />
  </sodipodi:namedview>
  <metadata
     id="metadata7">
    <rdf:RDF>
      <cc:Work
         rdf:about="">
        <dc:format>image/svg+xml</dc:format>
        <dc:type
           rdf:resource="http://purl.org/dc/dcmitype/StillImage" />
        <dc:title></dc:title>
      </cc:Work>
    </rdf:RDF>
  </metadata>
  <g
     inkscape:label="Layer 1"
     inkscape:groupmode="layer"
     id="layer1"
     transform="translate(0,-308.26772)">
    <path
       style="opacity:1;fill:none;fill-opacity:1;fill-rule:nonzero;stroke:#d0ccc7;stroke-width:50;stroke-linecap:square;stroke-linejoin:miter;stroke-miterlimit:0;stroke-dasharray:none;stroke-dashoffset:0;stroke-opacity:1"
       d="m 165.07034,1027.1846 c -8.87895,-0.4616 -18.11382,0.2252 -26.69341,-2.6004 -2.42869,-2.2862 -0.31573,-6.7582 -1.02023,-9.8058 0.0147,-164.92592 -0.0293,-329.85508 0.022,-494.77892 1.66158,-3.24158 6.17023,-2.2986 9.06831,-3.077 23.22898,-1.83136 46.55415,-0.53961 69.82306,-0.92837 122.35809,0.0708 244.71836,-0.14156 367.07508,0.10586 7.36257,0.58808 15.18539,-0.1378 22.17068,2.72933 1.81742,3.04948 0.12452,7.44619 0.70867,10.9441 -0.0146,164.47301 0.0294,328.94931 -0.022,493.4204 -1.66145,3.2422 -6.17058,2.2958 -9.06833,3.0768 -23.2291,1.831 -46.55411,0.5403 -69.82305,0.9285 -120.74692,-0.01 -241.49392,0.019 -362.24079,-0.015 z"
       id="rect4926"
       inkscape:connector-curvature="0" />
    <path
       style="opacity:1;fill:#d0ccc7;fill-opacity:1;fill-rule:evenodd;stroke:#d0ccc7;stroke-width:0;stroke-linecap:square;stroke-linejoin:miter;stroke-miterlimit:0;stroke-dasharray:none;stroke-dashoffset:0;stroke-opacity:1"
       d="m 278.60586,568.07498 0,408.84428 c 0,19.26603 -1.91142,34.77624 -4.28571,34.77624 l -42.94634,0 c -2.37428,0 -4.28571,-15.51021 -4.28571,-34.77624 l 0,-408.84428 c 0,-19.26603 1.91143,-34.77622 4.28571,-34.77622 l 42.94634,0 c 2.37429,0 4.28571,15.51019 4.28571,34.77622 z"
       id="rect4979-1"
       inkscape:connector-curvature="0" />
    <path
       inkscape:connector-curvature="0"
       style="opacity:1;fill:#d0ccc7;fill-opacity:1;fill-rule:evenodd;stroke:#d0ccc7;stroke-width:0;stroke-linecap:square;stroke-linejoin:miter;stroke-miterlimit:0;stroke-dasharray:none;stroke-dashoffset:0;stroke-opacity:1"
       d="m 460.53697,567.59002 0,408.84428 c 0,19.26604 1.91143,34.7762 4.28572,34.7762 l 42.94634,0 c 2.37428,0 4.28572,-15.51016 4.28572,-34.7762 l 0,-408.84428 c 0,-19.26603 -1.91144,-34.77621 -4.28572,-34.77621 l -42.94634,0 c -2.37429,0 -4.28572,15.51018 -4.28572,34.77621 z"
       id="rect4979-7-5" />
    <path
       inkscape:connector-curvature="0"
       style="opacity:1;fill:#d0ccc7;fill-opacity:1;fill-rule:evenodd;stroke:#d0ccc7;stroke-width:0;stroke-linecap:square;stroke-linejoin:miter;stroke-miterlimit:0;stroke-dasharray:none;stroke-dashoffset:0;stroke-opacity:1"
       d="m 341.91632,575.1989 0,408.84427 c 0,19.26603 1.91143,34.77623 4.28572,34.77623 l 42.94634,0 c 2.37428,0 4.28572,-15.5102 4.28572,-34.77623 l 0,-408.84427 c 0,-19.26603 -1.91144,-34.77622 -4.28572,-34.77622 l -42.94634,0 c -2.37429,0 -4.28572,15.51019 -4.28572,34.77622 z"
       id="rect4979-7-5-6" />
    <path
       style="opacity:1;fill:#d0ccc7;fill-opacity:1;fill-rule:evenodd;stroke:#d0ccc7;stroke-width:0;stroke-linecap:square;stroke-linejoin:miter;stroke-miterlimit:0;stroke-dasharray:none;stroke-dashoffset:0;stroke-opacity:1"
       d="M 655.37079,459.07506 90.469142,458.06425 c -26.619943,-0.0477 -48.045154,-2.44008 -48.038577,-5.36426 l 0.119103,-52.89259 c 0.0069,-2.92415 21.442399,-5.23992 48.062342,-5.19229 l 564.90165,1.01081 c 26.61994,0.0477 48.04513,2.44009 48.03855,5.36426 l -0.11911,52.89259 c -0.007,2.92418 -21.44238,5.23993 -48.06232,5.19229 z"
       id="rect4979-1-7"
       inkscape:connector-curvature="0" />
    <path
       style="opacity:1;fill:#d0ccc7;fill-opacity:1;fill-rule:evenodd;stroke:#d0ccc7;stroke-width:0;stroke-linecap:square;stroke-linejoin:miter;stroke-miterlimit:0;stroke-dasharray:none;stroke-dashoffset:0;stroke-opacity:1"
       d="m 494.99206,363.48555 -246.5742,-0.82073 c -11.61936,-0.0387 -20.97126,-1.98123 -20.96839,-4.35552 l 0.052,-42.94625 c 0.003,-2.37427 9.3594,-4.25456 20.97876,-4.21589 l 246.5742,0.82073 c 11.61935,0.0387 20.97125,1.98124 20.96837,4.35552 l -0.052,42.94625 c -0.003,2.37429 -9.3594,4.25457 -20.97875,4.21589 z"
       id="rect4979-1-7-4"
       inkscape:connector-curvature="0" />
  </g>
</svg>
